<svg xmlns="http://www.w3.org/2000/svg" viewBox="0 0 85 70"><defs><style>.a,.c{fill:none;stroke-miterlimit:10;}.a{stroke:#000;stroke-width:0.5px;}.b{font-size:8px;font-family:ShreeDev0714, "Shree Devanagari 714";}.c{stroke:#45d003;}</style></defs><title>alergenos</title><path class="a" d="M38.86,21.82l8.76-9.06c1.28.19,1.58,1.1,2.05,1.8s.86,1.5,1.23,2.17c.85.33,1.31-.23,1.86-.47,2.33-1,2.55-1.08,5.37-.78.53,2.42-.92,4.4-1.59,6.6l4.29,3c-.94,1-1.74,1.84-2.55,2.67s-1.62,1.58-2.4,2.39-1.63,1.72-2.44,2.57l1.6,2c-1.82,2.21-4.15,3-7,3.32l-4.47,4.48c-2.07,2.08-4.13,4.16-6.22,6.23s-4.17,4.28-6.42,6.23A8.38,8.38,0,0,1,22,56.68a8.41,8.41,0,0,1-5.39-5.52,8.2,8.2,0,0,1,1.09-7.86,34.83,34.83,0,0,1,2.85-3.23c2.45-2.51,4.91-5,7.42-7.46,1.8-1.75,3.67-3.42,5.24-4.87.3-1.59.51-2.69.75-4,.84-1,1.18-2.58,2.8-3.43ZM20.35,53.07A8.62,8.62,0,0,0,21.44,53a8.23,8.23,0,0,0,3.86-2.55Q35.17,40.64,45,30.78c1.14-1.14,2.25-2.31,3.39-3.47L46.06,25c-.5.45-1,.83-1.4,1.27-1.21,1.27-2.36,2.59-3.6,3.82-2,2-4.07,3.85-6.06,5.81s-4.25,4.23-6.35,6.37c-1.31,1.34-2.57,2.73-3.87,4.08-1.13,1.17-2.35,2.26-3.39,3.49A3.4,3.4,0,0,0,20.35,53.07ZM41.91,36.46c-1,1-2,2-2.94,3q-6.59,6.7-13.16,13.4a12.68,12.68,0,0,1-1.51,1.1l-1.3,1a9.58,9.58,0,0,0,2.21.45,7.67,7.67,0,0,0,4.28-1.66,41.43,41.43,0,0,0,3.1-3c2.49-2.46,5-4.91,7.46-7.39,1.75-1.76,3.46-3.56,5.18-5.35A5,5,0,0,0,41.91,36.46Zm-8.22-6.55c-1.59,1.5-3.06,2.84-4.47,4.23-2.88,2.85-5.74,5.73-8.6,8.61a8.33,8.33,0,0,0-2.53,4.9,3.72,3.72,0,0,0,.52,2.7,23.29,23.29,0,0,1,1.86-2.59c1.84-1.95,3.75-3.83,5.66-5.72,3-3,6.06-5.95,9.21-9Zm6.74-2.25,4.7-4.87c-.19-1-.41-2.17-.67-3.61-.92.93-1.59,1.63-2.29,2.3s-1.58,1.4-2.44,2.16C40,24.86,40.16,26.07,40.43,27.66Zm-3.64-4.45c-1.75,2.68-1.7,6.1,0,7.86A6.48,6.48,0,0,0,36.79,23.21ZM48,23.47c1.82-2.63,1.78-5.6-.09-7.67C46.15,18.55,46.11,20.83,48,23.47ZM52,34.53c-2.67-1.6-5.55-1.5-7.6.26A4.81,4.81,0,0,0,48,36.06,4.92,4.92,0,0,0,52,34.53Zm5.47-9c-.74-1.36-2-1.34-3-1.45A6,6,0,0,0,50,25.09c.58,1.47,1.92,1.28,2.92,1.5A6.07,6.07,0,0,0,57.43,25.49ZM56.12,17,51.6,19.21c.07,1.07-.7,1.88-.25,2.89,1,0,2.11.18,2.84-.65A8,8,0,0,0,56.12,17ZM54.3,28.7l-3.76-.38a8.37,8.37,0,0,0-3,2.85l3.86.55C52.39,30.66,53.63,30,54.3,28.7Z"/><text class="b" transform="translate(33.63 10.81)">APIO</text><text class="b" transform="translate(27.87 65.81)">CELERY</text><path class="c" d="M12.05,60.47A39.64,39.64,0,0,1,14.61,9.53"/><path class="c" d="M70.36,9.5a39.64,39.64,0,0,1,2.52,51.06"/></svg>