<svg xmlns="http://www.w3.org/2000/svg" viewBox="0 0 85 70"><defs><style>.a{font-size:8px;font-family:ShreeDev0714, "Shree Devanagari 714";}.b,.c{fill:none;stroke-miterlimit:10;}.b{stroke:#ff8039;}.c{stroke:#000;stroke-width:0.5px;}</style></defs><title>alergenos</title><text class="a" transform="translate(27.31 9.81)">GLUTEN</text><text class="a" transform="translate(27.31 64.81)">GLUTEN</text><path class="b" d="M12.05,59.47A39.64,39.64,0,0,1,14.61,8.53"/><path class="b" d="M70.36,8.5a39.64,39.64,0,0,1,2.52,51.06"/><path class="c" d="M43.34,15.06a12.93,12.93,0,0,1,4.82,5.84A11.54,11.54,0,0,1,55.93,16a6.88,6.88,0,0,1,3.86.34c0,3.51.69,5.9-4.47,11.22.23.75.93.95,1.53,1.24a8,8,0,0,1,3.6,4,10.43,10.43,0,0,1-4.33,3.75,13.07,13.07,0,0,1-5.52,1.06c.36,1.3,1.61,1.67,2,2.66-1.74,3.35-4.34,4.75-10.21,5.39l2.34,2.39a4.74,4.74,0,0,1-.63,1.3,11.51,11.51,0,0,1-10,4.12,10.77,10.77,0,0,1-5.22-2.23,22.16,22.16,0,0,1-4-4,12.07,12.07,0,0,1-2.05-4.67,10.06,10.06,0,0,1,1.19-7.47A20.2,20.2,0,0,1,27,31.5c.14-.15.42-.17.76-.3l2.66,2.22C30.22,29,32.19,25.79,35.29,23c.76-.12,1,.67,1.43,1s.7,1.12,1.71.94c.09-.73.21-1.52.28-2.31A10.73,10.73,0,0,1,43.34,15.06ZM58,32c-.61-.52-1.15-1-1.76-1.46a6.52,6.52,0,0,0-1.53-.79A8.64,8.64,0,0,0,46.3,31a1.53,1.53,0,0,0,.19,2.71c3.72,2.28,6.08,2.07,9.59.2A3.38,3.38,0,0,0,58,32ZM35.39,38.84c.62-.56,1.14-1.06,1.69-1.54.88-.75.71-1.91,1.13-2.83.95-2.13.3-4.1-.52-6A3.61,3.61,0,0,0,35.25,26C31.49,30.52,31.8,34.86,35.39,38.84Zm-6.3,9.68c.75,1.14,1.84,1.32,2.71,1.85a5,5,0,0,0,4.42.83c.33-.11.7-.06,1-.14a8.27,8.27,0,0,0,4.58-2.68,5.49,5.49,0,0,0-3.18-2.53,7.64,7.64,0,0,0-4.44-.49,27.6,27.6,0,0,0-3.66,1.38ZM27.44,33.91c-4,3-3.93,10.57.21,12.66C31.5,43.47,31.35,37.16,27.44,33.91Zm9.64,6.62A6.33,6.33,0,0,0,42,43.36a9.2,9.2,0,0,0,8-3,8.79,8.79,0,0,0-7.26-2.89A7.28,7.28,0,0,0,37.08,40.53ZM48.68,27c5.52.26,10.42-4.71,9-9C53.25,17.3,48.2,22.46,48.68,27Zm-5.07-9c-3.78,2.28-4.17,10.38-.24,12.44C47.48,27.2,47.33,21.56,43.61,18Zm-3,13-.33,4.18a7.61,7.61,0,0,0,4.06-.29A23.71,23.71,0,0,0,40.56,31.05ZM32.5,39v4.5L36.6,43C35.07,41.81,34.26,40.12,32.5,39Z"/></svg>