<svg xmlns="http://www.w3.org/2000/svg" viewBox="0 0 85 70"><defs><style>.a,.c{fill:none;stroke-miterlimit:10;}.a{stroke:#000;stroke-width:0.5px;}.b{font-size:8px;font-family:ShreeDev0714, "Shree Devanagari 714";}.c{stroke:#ffe050;}</style></defs><title>alergenos</title><path class="a" d="M34.32,36.08a13.6,13.6,0,0,1-4.91-2.27,8.76,8.76,0,0,1-3.82-4.65,8.93,8.93,0,0,1,0-6.83,11.75,11.75,0,0,1,7.94-6.49c3.12-.89,6.33-.74,9.1,1.44a20.06,20.06,0,0,1,3,2.57,11.6,11.6,0,0,1,2.81,8.84,5.46,5.46,0,0,1-1.1,3l-.11.15c-1.63,3.06-4.38,4.16-7.63,4.61A11.65,11.65,0,0,1,34.32,36.08Zm.67-2.4a10.06,10.06,0,0,0,5.46.14,6.81,6.81,0,0,0,3.6-1.89A5.83,5.83,0,0,0,46,27.1a9.92,9.92,0,0,0-2-5.27A8.57,8.57,0,0,0,36.85,18a9.31,9.31,0,0,0-7.57,3.37A6.32,6.32,0,0,0,29.13,30,10.92,10.92,0,0,0,35,33.68Z"/><path class="a" d="M49.63,54.1a11.18,11.18,0,0,1-7.17-6.17,7.34,7.34,0,0,1-.09-5.49A11.86,11.86,0,0,1,59,35a12.32,12.32,0,0,1,5.57,5.39A8.86,8.86,0,0,1,65.46,47c-1.06,4.05-3.92,6-7.71,7.18C54.89,55.1,52.17,54.54,49.63,54.1Zm4.29-18.05a15.89,15.89,0,0,0-3.55.92,11,11,0,0,0-5,4.55,6.52,6.52,0,0,0,1,7.61C50,53.3,58,53.59,62.11,48.41a5.07,5.07,0,0,0,.92-5.1c-1.24-3-3-5.67-6.45-6.55C55.61,36.52,54.64,36.24,53.92,36.05Z"/><path class="a" d="M37.66,49.88a10.63,10.63,0,0,1-2.1,4.49c-2.31,2.57-5.21,3-8.38,2.77a9,9,0,0,1-2.41-.68A13.41,13.41,0,0,1,17,49.38c-1.06-2.3-1.74-4.69-1-7.32a8.82,8.82,0,0,1,5.74-6.21,12.22,12.22,0,0,1,8.12-.26,11.38,11.38,0,0,1,8,9.68A10.08,10.08,0,0,1,37.66,49.88Zm-18.51-9.5c-.28,1-.58,2.09-.83,3.14a4,4,0,0,0-.11,1.42,11.56,11.56,0,0,0,9.23,9.63c4.09,1,7.69-2.44,8.15-5.71a11.34,11.34,0,0,0-1-6.15,7.48,7.48,0,0,0-3.56-3.84,9.58,9.58,0,0,0-6.73-1.1,6.87,6.87,0,0,0-3.52,1.58A9,9,0,0,1,19.15,40.38Z"/><path class="a" d="M32.4,22.27l-.25-.87c.27-.39.53-.79.82-1.22,2.42-1.1,4.83-1.48,7.26.22-.07.39-.1.69-.17,1a4.37,4.37,0,0,1-.27.64,23.32,23.32,0,0,0-2.56-.18,23.13,23.13,0,0,0-2.29.36C34.14,22.29,33.4,23.05,32.4,22.27Z"/><path class="a" d="M48.4,40.7c.4-2.43,2.69-2.05,3.8-3.26l3.22.52A1.46,1.46,0,0,1,55,40a5.32,5.32,0,0,0-4.56,1.66Z"/><path class="a" d="M25.13,39.46c3-1.22,6.56.27,7.4,3.24l-1.3.73A25.91,25.91,0,0,0,28.35,42a25,25,0,0,0-3-.72C24.86,40.94,24.68,40.32,25.13,39.46Z"/><text class="b" transform="translate(16.58 10.81)">ALTRAMUCES</text><text class="b" transform="translate(29.12 65.81)">LUPINS</text><path class="c" d="M12.05,60.47A39.64,39.64,0,0,1,14.61,9.53"/><path class="c" d="M70.36,9.5a39.64,39.64,0,0,1,2.52,51.06"/></svg>