<svg xmlns="http://www.w3.org/2000/svg" viewBox="0 0 85 70"><defs><style>.a,.c{fill:none;stroke-miterlimit:10;}.a{stroke:#000;stroke-width:0.5px;}.b{font-size:8px;font-family:ShreeDev0714, "Shree Devanagari 714";}.c{stroke:#cf9a2a;}</style></defs><title>alergenos</title><path class="a" d="M30.72,35.07a7.4,7.4,0,0,0-.19-.94A3,3,0,0,1,31.2,31c1.93-2.17,3.68-4.5,5.74-6.53,2.82-2.79,5.23-5.94,8.06-8.72a7.7,7.7,0,0,1,2.42-2,3,3,0,0,1,3.4.73c2.94,2.84,5.79,5.78,8.64,8.71a3.17,3.17,0,0,1-.11,5c-2.16,2-4.4,4-6.58,6-2,1.8-4.11,3.42-5.92,5.42A32.81,32.81,0,0,1,43,42.91c-1.28,1-2.66,1.41-4.07.31l-2.2,1.42L34.4,44l-3.87,3.19c1,0,1.7,0,2.39,0a3.32,3.32,0,0,1,2.9,3c.12,1.2-1.3,3.16-2.67,3.19a10.84,10.84,0,0,0-1.6.27,2.52,2.52,0,0,0,1.94.68c1.57,0,3.14,0,4.7,0a2.82,2.82,0,0,1,1.89.51L40.14,56a3.35,3.35,0,0,1-.4.31,1.33,1.33,0,0,1-.59.22c-2.59,0-5.19,0-7.78,0-.84,0-1.33-.65-1.85-1.19L29,53.78l.47-1.54c1-1.37,2.45-1.37,4.15-1.81-.64-.37-.9-.65-1.2-.68-.79-.07-1.6,0-2.41,0-.65,0-1.3,0-1.94,0-1.72.1-3.09-.37-3.71-2.31a7.62,7.62,0,0,1,1.81-3,36.72,36.72,0,0,0,3-3.58c.37-.46.69-1,1-1.35a6.32,6.32,0,0,1-.64-2.23A7.6,7.6,0,0,1,30.72,35.07Zm2.93,3.59c-.14.78.48.82,1,1,.75,1.42.93,1.59,1.86,1.72-.81-1.24-1-1.39-1.91-1.67a.9.9,0,0,0-1-1,1.73,1.73,0,0,0-1.36-1.32A1.59,1.59,0,0,0,33.65,38.66Zm-4.28,5.85a2.5,2.5,0,0,0,.85-.27c.86-.67,1.69-1.39,2.58-2.15l-.74-1-2.59,3.17c-.06.07,0,.2-.06.31L29,45l.25.12ZM52.61,30.77l-1.47-1.45L48,26.1c-1-1-1.91-2-2.94-3-.63-.58-1.07-1.51-2.18-1.54l-5.3,6c2.8,3.23,5.88,6.09,8.83,9C48.41,34.61,50.72,33,52.61,30.77Zm5.46-5.41c-2.85-3.2-5.94-6.1-8.85-9.08H47.8a12,12,0,0,0-2.61,3,98.12,98.12,0,0,0,9.69,9.6c1-.89,2-1.78,2.94-2.7C58,26.05,58,25.78,58.07,25.36ZM44.35,38.43c-2-2.61-7.37-7.83-8.82-8.6-.68.78-1.44,1.55-2.07,2.41-.79,1.06-.75,1.45.1,2.41.72.79,1.51,1.52,2.27,2.27l4.51,4.48C42.07,40.91,43.08,39.59,44.35,38.43Z"/><text class="b" transform="translate(24.09 10.81)">MUSTAZA</text><text class="b" transform="translate(23.65 65.81)">MUSTARD</text><path class="c" d="M12.05,60.47A39.64,39.64,0,0,1,14.61,9.53"/><path class="c" d="M70.36,9.5a39.64,39.64,0,0,1,2.52,51.06"/></svg>