<svg xmlns="http://www.w3.org/2000/svg" viewBox="0 0 85 70"><defs><style>.a,.c{fill:none;stroke-miterlimit:10;}.a{stroke:#000;stroke-width:0.5px;}.b{font-size:8px;font-family:ShreeDev0714, "Shree Devanagari 714";}.c{stroke:#d65750;}</style></defs><title>alergenos</title><path class="a" d="M59.49,15.81c.73,3.12,1.39,5.84,2,8.56.31,1.43.55,2.86.78,4.3.13.75.18,1.51.27,2.27a6.8,6.8,0,0,1-.1,3.14,2.51,2.51,0,0,0-.15.86,8.6,8.6,0,0,1-1.36,4.79,23.29,23.29,0,0,1-2.4,3.44c-2.11,2.27-4.24,4.54-6.17,6.95A19,19,0,0,1,48,53.65a13,13,0,0,1-5.79,1.82,16.45,16.45,0,0,1-10.57-2.14,18.79,18.79,0,0,1-7.23-7.53c-1.45-2.55-1.3-5.38-2-8a1.06,1.06,0,0,1,0-.53,54.93,54.93,0,0,1,1.53-6.8,12.55,12.55,0,0,1,2.52-3.55c1.69-2,3.45-4,5.2-5.93a20.78,20.78,0,0,1,5.51-4.82,11.91,11.91,0,0,1,6-1.66c2.15,0,4.3-.16,6.44,0,1.51.12,3,.26,4.52.44s2.9.38,4.35.6A8.68,8.68,0,0,1,59.49,15.81Zm.61,17c-.36-2.22-.63-4.3-1.06-6.36s-1-4.11-1.55-6.19c-.76.82-1.52,1.62-2.25,2.44-1.82,2.06-3.64,4.12-5.44,6.19-1.43,1.63-2.83,3.28-4.25,4.92-1.87,2.14-3.76,4.26-5.63,6.4a6.24,6.24,0,0,1-2.4,1.92l-1.32-.85A2.86,2.86,0,0,1,37,39c2.16-2.43,4.31-4.86,6.49-7.28,1.48-1.66,3-3.27,4.49-4.93,1.12-1.25,2.21-2.54,3.3-3.82l4.09-4.82c-2.85-.7-5.58-.64-8.37-1l-4.43,4.92c-.2,1.76,1.06,3.24.51,5.07C41.49,28.9,39,29.44,37.26,31H35.58L35,29.26c1.5-1.71,4-2.15,5.16-3.79l-.6-4.1,3.31-4a3.21,3.21,0,0,0-1.14,0c-.66.32-1.56.21-2,1-2.59.4-4.1,2.37-5.71,4.11-1.92,2.07-3.67,4.31-5.51,6.47A10.26,10.26,0,0,0,26,33.49c-.31,1.48-1.08,2.89-.77,4.47.19.92.49,1.81.62,2.73.56,4,2.85,6.87,5.85,9.3,1.86,1.5,4.1,2.08,6.53,2.71.74-1.8,1.58-3.52,2.14-5.32a7.5,7.5,0,0,1,4.3-4.59l1.34.59V45c-2.12,1.67-2.25,1.78-3.3,4.17-.48,1.07-.8,2.21-1.22,3.41a11.51,11.51,0,0,0,8.08-3.66c1.56-1.64,3.07-3.35,4.58-5.06,1.06-1.2,2.11-2.4,3.09-3.66a7.57,7.57,0,0,0,2-3.82A23.58,23.58,0,0,1,60.1,32.81Z"/><path class="a" d="M51.74,34.84c-.52-2,1.39-3,1.39-4.68l1.37-.94,1.32.64a3.4,3.4,0,0,1-.69,3,11.62,11.62,0,0,0-.67,1.56C53.8,35.57,52.91,35.69,51.74,34.84Z"/><path class="a" d="M29.17,39.83l-.5-1.21c1.11-1.84,2.85-2,4.89-1.82v1.91A4.9,4.9,0,0,1,29.17,39.83Z"/><path class="a" d="M53.14,40.9l-1.36,1.19-2.23-1,.12-1.62,1.6-.56,1.71.54Z"/><path class="a" d="M35.12,44.57l-.64,1.58c-.92.23-1.72.47-2.32-.52a1.85,1.85,0,0,1,1.22-2.18C34.2,43.2,34.7,43.71,35.12,44.57Z"/><text class="b" transform="translate(17.41 10.81)">FRUT. SECOS</text><text class="b" transform="translate(32.25 65.81)">NUTS</text><path class="c" d="M12.05,60.47A39.64,39.64,0,0,1,14.61,9.53"/><path class="c" d="M70.36,9.5a39.64,39.64,0,0,1,2.52,51.06"/></svg>