<svg xmlns="http://www.w3.org/2000/svg" viewBox="0 0 85 70"><defs><style>.a{font-size:8px;font-family:ShreeDev0714, "Shree Devanagari 714";}.b,.c{fill:none;stroke-miterlimit:10;}.b{stroke:#8c0b4d;}.c{stroke:#000;stroke-width:0.5px;}</style></defs><title>alergenos</title><text class="a" transform="translate(24.69 10.81)">SULFITOS</text><text class="a" transform="translate(24.63 65.81)">SULPHITE</text><path class="b" d="M12.05,60.47A39.64,39.64,0,0,1,14.61,9.53"/><path class="b" d="M70.36,9.5a39.64,39.64,0,0,1,2.52,51.06"/><path class="c" d="M49.75,31.21c.14-.66.27-1.33.41-2h2c0,.69.09,1.33.15,2.11a19,19,0,0,0,4,2.56c1.4.84,2.81,1.66,4.38,2.58A15.75,15.75,0,0,1,61,38.52c0,3.11,0,6.21,0,9.34l-8.66,5c0,.76-.07,1.45-.11,2.16a1.72,1.72,0,0,1-2.27-.3c0-.52-.06-1.11-.11-1.9l-3.59-2.1L42.59,48.6l-7.23,4.15c-.09.47-.17.81-.22,1.15s-.07.69-.1,1a1.9,1.9,0,0,1-1.8.42c-.85-.57-.4-1.44-.77-2.41-2.23-1.83-5.17-3-8.06-4.68a2.57,2.57,0,0,1-.25-1.6c.12-2.8.08-5.61.08-8.41a3.45,3.45,0,0,0-.24-.84l.56-1.28a48.52,48.52,0,0,0,8-4.7l.31-2.18H35a13.17,13.17,0,0,1,.11,1.34,1.4,1.4,0,0,0,.54,1.33,75.59,75.59,0,0,0,7,3.86c2.48-1.4,4.94-2.68,7.23-4.25ZM41.11,46.66a3.67,3.67,0,0,0,.26-1c0-2.31,0-4.61,0-6.92a1.49,1.49,0,0,0-1-1.5,9,9,0,0,1-1.32-.66C37.69,35.82,36.32,35,35,34.2a1.87,1.87,0,0,0-2.1,0c-1.22.76-2.52,1.39-3.75,2.13-1,.59-2.12.94-2.69,2.19,0,1.95,0,4,0,6.06a2.9,2.9,0,0,0,1.52,2.73c1.6.87,3.12,1.9,4.69,2.83a2.4,2.4,0,0,0,2.67,0C37.16,49,39.06,47.88,41.11,46.66Zm17.43-8.73c-.32-.2-.72-.46-1.13-.7-.26-.14-.55-.22-.81-.37-1.45-.86-2.92-1.71-4.35-2.61a1.91,1.91,0,0,0-2.22,0c-1.35.84-2.75,1.6-4.11,2.41-.72.43-1.4.9-2,1.28v8.76l4.85,2.64a5.14,5.14,0,0,1,.64.38,2.52,2.52,0,0,0,3.34.24c.46-.29.94-.55,1.41-.82l4.38-2.57Z"/><path class="c" d="M37.77,22.85H33v2.83h5.35v.85H31.38V18.69h6.67v.85H33V22h4.8Z"/><path class="c" d="M44.07,23v.75H39.55V23Z"/><path class="c" d="M52.37,26.53,50.79,24.8c-.64-.67-1-1.1-1.43-1.55h0c-.35.45-.7.87-1.34,1.56l-1.48,1.72H44.68l3.77-4-3.63-3.87h1.85l1.63,1.84c.46.51.81.91,1.14,1.32h.05a17.2,17.2,0,0,1,1.12-1.32l1.68-1.84h1.83l-3.75,3.82,3.84,4Z"/></svg>