<svg xmlns="http://www.w3.org/2000/svg" viewBox="0 0 85 70"><defs><style>.a,.c{fill:none;stroke-miterlimit:10;}.a{stroke:#000;stroke-width:0.5px;}.b{font-size:8px;font-family:ShreeDev0714, "Shree Devanagari 714";}.c{stroke:#02a8ee;}</style></defs><title>alergenos</title><path class="a" d="M30.33,40.24a7.67,7.67,0,0,0,.43,1.82,2.06,2.06,0,0,0,1.15,1,22.06,22.06,0,0,0,5.14,1.25,4.5,4.5,0,0,1,1.36.56c1.12-.91,2.55-.78,4-.74a2.18,2.18,0,0,1,1,.2c1.21.73,2.6.59,3.94,1,1,1,1.21,1.5.52,2.68a26,26,0,0,1-2.11,2.74,5.4,5.4,0,0,1,.19,4.81c-1.82,0-3.7.23-5.36-.93-2.11-.08-3.25-1.72-4.59-3A15,15,0,0,1,29.11,50a12.58,12.58,0,0,1-5.26-4.5,3.74,3.74,0,0,1-.32.36c-.41-1.16-.82-2.43-1.33-3.67A14.13,14.13,0,0,1,22,32.61c1.23-4,4.12-6.73,8-8.49A14,14,0,0,1,36,23.06c6.11,0,12.22,0,18.34,0,.94,0,1.88-.1,3-.16,1.52.78,1.52.8,1.34,2.47-.08.7-.1,1.4-.16,2.3l1.21-.37c1.64-2.42,1.68-2.88.41-5.24l-2-1.16H39c-3.15,0-6.29,0-9.44,0-.75,0-1.51-.25-2.27-.26a2.29,2.29,0,0,1-2.42-2.11,11.12,11.12,0,0,0-.5-1.35c.17-.39.35-.76.5-1.14.74-1.9,1.66-2.58,3.69-2.59l13,0h9.93A1.79,1.79,0,0,1,52,15.27,2.21,2.21,0,0,1,50,16c-5.4,0-10.8,0-16.2,0-2.1,0-4.21.14-6.44.22v1.6c.18.1.32.25.48.26a31.65,31.65,0,0,0,3.35.33c5,0,10,0,15,0,3.85,0,7.69.08,11.53-.05a6.06,6.06,0,0,1,5.54,4.1c.18.44.37.87.56,1.33-.89,4.93-2.22,6.39-6.25,6.91-.84,1.1-1.62,2.21-2.51,3.23a13.29,13.29,0,0,1-8.1,4.52,30.65,30.65,0,0,1-4.16.16c-2.3.09-4.59,0-6.88,0H33A3,3,0,0,0,30.33,40.24Zm14-4.17a12.18,12.18,0,0,0,5.87-1.54A10.71,10.71,0,0,0,55,29.26c.46-1.07,1.2-2.24.9-3.56a77.52,77.52,0,0,0-11.54.12Zm-3,.12c.17-3.7.08-7.09,0-10.6-3.15.21-6.15-.49-9.15.51,1.76,3.18,2.5,6.71,4.42,9.78Zm-7.89-.59a75.16,75.16,0,0,0-3.61-8.3c-3.14,1.38-4.72,3.85-5.54,7.15l4.57,2.79Zm-5.6,4.3c-1.41-.67-2.27-2-4-2.22.31,2.94,1.06,5.46,3.19,7.53l1.7-1.06a11.55,11.55,0,0,1-.84-2A11.4,11.4,0,0,1,27.91,39.9ZM29.35,47c2,1.69,4.29,1.63,6.52,2.12l.69-2c-2-.53-3.81-1.34-5.89-1.21Zm10.13.39a7.59,7.59,0,0,0,4.55,1l1-.83C43.1,47,41.48,45.91,39.48,47.36Zm4.07,5c-1-1.92-2.78-1.85-4.55-2.05C39.57,51.91,41.59,52.81,43.55,52.38Z"/><path class="a" d="M47.83,29.07l1-1.67h2.84c.84.94.31,1.92.44,2.77C50.39,32,48.7,31.59,47.83,29.07Z"/><text class="b" transform="translate(16.68 9.81)">CRUSTACEOS</text><text class="b" transform="translate(16.46 64.81)">CRUSTACEAN</text><path class="c" d="M12.05,59.47A39.64,39.64,0,0,1,14.61,8.53"/><path class="c" d="M70.36,8.5a39.64,39.64,0,0,1,2.52,51.06"/></svg>