<svg xmlns="http://www.w3.org/2000/svg" viewBox="0 0 85 70"><defs><style>.a,.c{fill:none;stroke-miterlimit:10;}.a{stroke:#000;stroke-width:0.5px;}.b{font-size:8px;font-family:ShreeDev0714, "Shree Devanagari 714";}.c{stroke:#fe9e24;}</style></defs><title>alergenos</title><path class="a" d="M27.13,36.87A44.49,44.49,0,0,1,27.82,31a26.81,26.81,0,0,1,3.28-8.3c.86-1.34,1.77-2.65,2.74-3.91a6.33,6.33,0,0,1,1.32-1,13.53,13.53,0,0,1,5.43-2.66,9.21,9.21,0,0,1,5,.3,14.47,14.47,0,0,1,6.51,4.78A26,26,0,0,1,56.88,30a26.31,26.31,0,0,1,.84,9.78A20.1,20.1,0,0,1,54.05,49a14,14,0,0,1-9,5.86,12.6,12.6,0,0,1-9.16-1.53,16.87,16.87,0,0,1-6.69-7.07,13.56,13.56,0,0,1-1.57-4.8C27.49,40,27.3,38.44,27.13,36.87Zm2.58.06a21.87,21.87,0,0,0,0,3.24,14.53,14.53,0,0,0,.88,2.91c.27.74.64,1.44,1,2.15a12.74,12.74,0,0,0,7.91,7,10.29,10.29,0,0,0,9.79-1.93,15.68,15.68,0,0,0,6-11.44,21,21,0,0,0-.73-7.91c-1.29-4.4-3.05-8.47-6.78-11.49-2.47-2-6.61-2.57-9.36-.86A15.79,15.79,0,0,0,33.22,24,24.31,24.31,0,0,0,29.71,36.93Z"/><path class="a" d="M32.35,38.3A6,6,0,0,1,32.83,37a1.11,1.11,0,0,1,2,.13,4.8,4.8,0,0,1,.31,1.32,22,22,0,0,0,.46,2.83,7.36,7.36,0,0,0,1.22,2.36c1.35,1.72,2.92,3.17,5.24,3.46a1.87,1.87,0,0,1,1,.51,1.11,1.11,0,0,1-.49,1.9,2.25,2.25,0,0,1-1.31,0c-3.81-1.23-6.75-3.4-7.83-7.49C33.06,40.84,32.71,39.59,32.35,38.3Z"/><text class="b" transform="translate(29.3 10.81)">HUEVO</text><text class="b" transform="translate(34.38 65.81)">EGG</text><path class="c" d="M12.05,60.47A39.64,39.64,0,0,1,14.61,9.53"/><path class="c" d="M70.36,9.5a39.64,39.64,0,0,1,2.52,51.06"/></svg>