<svg xmlns="http://www.w3.org/2000/svg" viewBox="0 0 85 70"><defs><style>.a,.c{fill:none;stroke-miterlimit:10;}.a{stroke:#000;stroke-width:0.5px;}.b{font-size:8px;font-family:ShreeDev0714, "Shree Devanagari 714";}.c{stroke:#1f329a;}</style></defs><title>alergenos</title><path class="a" d="M68.91,32.85c0,1-1.13,1.24-1.64,2.14l1.46,1.56a1.89,1.89,0,0,1-.47,1.69,26,26,0,0,1-7.59,6.54c-2.93,1.58-6,3-9.37,3.31a4.88,4.88,0,0,0-2,.95,23.82,23.82,0,0,1-5,2.54,15.35,15.35,0,0,1-5.2,1c-.93,0-1.9.16-2.65-.55a5.25,5.25,0,0,1-1.63-3c-.21-1.19-.26-2.41-.36-3.42l-6.6-4.77A16.3,16.3,0,0,0,26.32,42a13.13,13.13,0,0,1-6.23,3.5A5.1,5.1,0,0,1,16.8,45c-.19-.44-.42-1-.71-1.6.57-1.08,1.12-2.21,1.75-3.3.52-.89,1.22-1.68,1.65-2.61A9.39,9.39,0,0,0,20,35.3a10.89,10.89,0,0,0-2.4-5.81,19.85,19.85,0,0,1-1.43-3c1-2.36,2.11-2.76,4.26-1.93a14.87,14.87,0,0,1,3.72,1.75,10.92,10.92,0,0,1,2.65,2.15,3.63,3.63,0,0,0,1.06.74l6.5-4.92c.38-2.23.06-5.05,2.63-6.65a16.29,16.29,0,0,1,9.18,1.41,17.46,17.46,0,0,1,2.67,1.57,7.78,7.78,0,0,0,2.67,1.16,36.53,36.53,0,0,1,9,3.25A25.26,25.26,0,0,1,68.91,32.85ZM54.1,28.15c-1,2.68-1.91,5.4-1.47,8.28A14,14,0,0,0,56,44.27a25.59,25.59,0,0,0,9.51-6.73c.07-1.42-1.68-1.75-1.34-3L65.72,33a11.88,11.88,0,0,0-3.65-3.8,24.47,24.47,0,0,0-7.89-4.11,17.2,17.2,0,0,0-3.69-.82c-3.82-.12-7.66-.28-11.33,1.09a22.37,22.37,0,0,0-5.29,2.53,36.79,36.79,0,0,0-4.51,3.94c-1.26,1.25-2,1.17-3.15-.19a11.69,11.69,0,0,0-1.94-2.14,37.57,37.57,0,0,0-4-2.34A3.71,3.71,0,0,0,19,27c.75,1.17,1.48,2.15,2.05,3.22a12,12,0,0,1,1.46,4.55,12.87,12.87,0,0,1-1.35,4.94L19,43.13c1.82-.7,3.45-1.11,4.71-2.25s2.43-2.26,3.6-3.35a2,2,0,0,1,1.88.72,42.7,42.7,0,0,0,3.6,3.11,19.57,19.57,0,0,0,3,2,33.44,33.44,0,0,0,6.5,2.14,9,9,0,0,0,2,.35c2,0,4,.08,5.94,0a3.74,3.74,0,0,0,2.72-1,3.61,3.61,0,0,0-.33-.79,16,16,0,0,1-2.48-7.42,17.48,17.48,0,0,1,.69-7,12.53,12.53,0,0,1,.82-2.05,1.31,1.31,0,0,1,1.89-.41ZM36.91,46.44a21.68,21.68,0,0,0,.67,2.7,1.69,1.69,0,0,0,2.24,1.11c1.06-.26,2.12-.53,3.17-.84.69-.2,1.37-.49,2.33-.84C42.4,47.76,39.64,47.78,36.91,46.44ZM38.46,19.6a3.41,3.41,0,0,0-1.12,3.46,28.43,28.43,0,0,0,7.39-1.93C42.63,20.72,40.71,19.67,38.46,19.6Z"/><path class="a" d="M56.77,34.21c-.42-.9-1.34-1.55-.9-2.89.59-1.09,1.56-1.83,3.49-1.35.21.28.62.85,1.18,1.63C60.82,33.84,60,34.51,56.77,34.21Z"/><text class="b" transform="translate(24.25 10.81)">PESCADO</text><text class="b" transform="translate(34.3 65.81)">FISH</text><path class="c" d="M12.05,60.47A39.64,39.64,0,0,1,14.61,9.53"/><path class="c" d="M70.36,9.5a39.64,39.64,0,0,1,2.52,51.06"/></svg>