<svg xmlns="http://www.w3.org/2000/svg" viewBox="0 0 85 70"><defs><style>.a{font-size:8px;font-family:ShreeDev0714, "Shree Devanagari 714";}.b{fill:none;stroke:#4ec46d;stroke-miterlimit:10;}.c{fill:#4ec46d;}.d{fill:#4ec46e;}</style></defs><title>free-alergen</title><text class="a" transform="translate(17 10.81) scale(0.83 1)">SIN ALERGENOS</text><text class="a" transform="translate(13.67 65.81)">FREE ALERGEN</text><path class="b" d="M12.05,60.47A39.64,39.64,0,0,1,14.61,9.53"/><path class="b" d="M70.36,9.5a39.64,39.64,0,0,1,2.52,51.06"/><path class="c" d="M53.35,46.71l-.44.44a2.53,2.53,0,0,0-.51,2.56c0,.1.06.21.11.31.18.35.13.41-.18.65A23.18,23.18,0,0,1,49.1,53c-.63.35-1.28.67-1.94,1A17.25,17.25,0,0,1,44,55a15.22,15.22,0,0,1-2.78.46c-.73,0-1.46.12-2.2.12a22.19,22.19,0,0,1-2.44-.15c-.87-.11-1.73-.28-2.59-.47a18.62,18.62,0,0,1-4.61-1.74,15.77,15.77,0,0,1-2.85-1.84c-.55-.45-1.11-.88-1.63-1.36a13.49,13.49,0,0,1-1.08-1.18c-.24-.29-.24-.31-.56-.11L20.5,50.51l-1.93,1.2-.31.2a1.22,1.22,0,0,1-.13-.31c-.14-1-.3-2.06-.4-3.09-.14-1.38-.28-2.76-.35-4.14s-.07-2.68-.05-4c0-1.17.07-2.35.16-3.52a25.73,25.73,0,0,1,.36-2.76c.21-1.14.45-2.28.75-3.41a21.09,21.09,0,0,1,1.11-3.12,19.75,19.75,0,0,1,1.75-3.23c.46-.67,1-1.31,1.48-1.95a14.76,14.76,0,0,1,2.18-2.15,25.31,25.31,0,0,1,2.2-1.52c.53-.34,1.07-.68,1.62-1a23.76,23.76,0,0,1,2.53-1.25,20.74,20.74,0,0,1,3.61-1.06,19.61,19.61,0,0,1,3.41-.34,20.26,20.26,0,0,1,4.4.42,16.47,16.47,0,0,1,2.71.76c.86.33,1.72.64,2.54,1a14.22,14.22,0,0,1,2.49,1.48c.62.49,1.26,1,1.87,1.46a15.72,15.72,0,0,1,2.08,2.08,17.39,17.39,0,0,1,2,2.77A18.79,18.79,0,0,1,57.49,27c.21.46.39.93.58,1.4a.59.59,0,0,1,0,.53,21.29,21.29,0,0,1-2.74,3.91c-.56.66-1.14,1.29-1.7,1.94a13.05,13.05,0,0,0-1.77,2.79,8,8,0,0,0-.74,4.19,7.65,7.65,0,0,0,.68,2.56,7.3,7.3,0,0,0,1.5,2.23S53.31,46.64,53.35,46.71Z"/><path class="d" d="M62.92,32.79l0,.21-.06.3v.19c-.08.11-.22.2-.1.36a.07.07,0,0,0,0,.07,2.9,2.9,0,0,0-.16.41c-.27,1-.53,2.07-.79,3.1a1.51,1.51,0,0,0,0,.3s0,0,0,.06c-.08.19-.17.39-.24.59s-.12.47-.18.7a.07.07,0,0,0,0,.06.85.85,0,0,0-.14.19c-.22.5-.42,1-.65,1.51A17.48,17.48,0,0,1,58.61,44c-.43.55-.85,1.11-1.32,1.63a12.41,12.41,0,0,1-1.12,1,.66.66,0,0,1-.91,0q-.37-.28-.72-.6a7.1,7.1,0,0,1-2.08-3.34c-.1-.32-.18-.64-.27-.95v0l0,0,0-1.18,0-.14.09-.36a.08.08,0,0,0,0-.07l0-.3v-.19l.2-.77h0l.09-.27h0a1.08,1.08,0,0,0,.27-.75.06.06,0,0,0,0,0,.7.7,0,0,0,.15-.19,12.72,12.72,0,0,1,1.44-2.26c.26-.33.49-.69.73-1l.15-.14a1.31,1.31,0,0,0,.63-.7l.15-.14a1,1,0,0,0,.55-.65l.15-.13a4.16,4.16,0,0,0,1.06-1.33L58,31a1,1,0,0,0,.19-.15c.24-.36.47-.72.73-1.07A19.55,19.55,0,0,0,61,25.93a2.86,2.86,0,0,0,.1-.42.08.08,0,0,0,0-.05.36.36,0,0,0,.14-.42s0,0,0-.05c.17-.1.17-.25.14-.42,0,0,0,0,0-.05a.49.49,0,0,0,.15-.54h0a3.87,3.87,0,0,0,.51-2,.07.07,0,0,0,0-.06.45.45,0,0,1,.6-.19L64,23.62c0,.05,0,.1,0,.14.24.46.48.91.71,1.37s.57,1.17.85,1.75c.07.17.15.33.23.49l.08.18.12.29.13.28a.55.55,0,0,0,0,.18c.17.54.35,1.07.52,1.61a22.87,22.87,0,0,1,.89,4.18c.06.45.11.89.17,1.33h0v1.72s0,.09.06.13a.05.05,0,0,0,0,0,1.3,1.3,0,0,0-.09,1s0,0,0,.06a.94.94,0,0,0-.1.8h0s-.07.07-.08.12c-.13.66-.25,1.33-.38,2-.06.34-.14.68-.21,1a.06.06,0,0,0-.05,0,2,2,0,0,0-.14.25,21.37,21.37,0,0,1-1,2.1,7.06,7.06,0,0,1-3.16,2.73,6.93,6.93,0,0,1-2.64.65l-1.17,0a.11.11,0,0,0-.08,0c-.25,0-.38.16-.53.3-.3.28-.58.58-.88.86-.56.51-1.15,1-1.68,1.54a5.51,5.51,0,0,1-1.19,1h0l-.19-.13L54,51.46l-.17-.36-.24-.46a1,1,0,0,1,.6-.87A21.26,21.26,0,0,0,56,48.56a9.44,9.44,0,0,0,.9-.89l.16-.12s.1,0,.13-.07a19.05,19.05,0,0,0,2.2-2.63,5.08,5.08,0,0,0,.35-.7l.18-.18a2.13,2.13,0,0,0,.58-1,.09.09,0,0,0,.06-.06,4.7,4.7,0,0,0,.75-1.5.1.1,0,0,0,0-.07c.18-.09.18-.24.15-.4a.07.07,0,0,0,0-.06,2.5,2.5,0,0,0,.5-1.34h0a3.46,3.46,0,0,0,.53-1.64.07.07,0,0,0,0-.05A3.35,3.35,0,0,0,63,36.22l0-.11.06-.3,0-.12a.49.49,0,0,0,.09-.57h0a.82.82,0,0,0,.12-.77.07.07,0,0,0,0-.06,1.1,1.1,0,0,0,.13-.85l0-.15v-.16h0c.16-.11.06-.25,0-.37v-.12l0-.29a.06.06,0,0,0,0-.07l0-.29a.06.06,0,0,0,0-.07v-.16a.07.07,0,0,0,0-.06c.24-.24,0-.49,0-.74l0-.14,0-.67V30h0a2.13,2.13,0,0,0-.09-1.26.47.47,0,0,0-.06-.58.52.52,0,0,0,0,.62,1.84,1.84,0,0,0,0,1.09l-.12,1.28c0,.29,0,.58-.06.87a.07.07,0,0,0,0,.06l-.07.44s0,0,0,0Z"/></svg>