<svg xmlns="http://www.w3.org/2000/svg" viewBox="0 0 85 70"><defs><style>.a,.c{fill:none;stroke-miterlimit:10;}.a{stroke:#000;stroke-width:0.5px;}.b{font-size:8px;font-family:ShreeDev0714, "Shree Devanagari 714";}.c{stroke:#7a401a;}</style></defs><title>alergenos</title><path class="a" d="M31.4,14.78c1.1-.1,2-.24,2.83-.25,5.85,0,11.71,0,17.56,0,.24,0,.47,0,.7,0a1.73,1.73,0,0,1,1.74,1.81c0,.75-.1,1.51-.12,2.26a4.67,4.67,0,0,0,.83,3.12,16,16,0,0,1,1.78,3.37,5.27,5.27,0,0,1,.35,2c0,6.86,0,13.71,0,20.56v7.15a2.7,2.7,0,0,1-2.34.67l-23,0c-.64,0-1.29,0-1.93,0A1.84,1.84,0,0,1,28,54.45v-4.4c0-7.49,0-15-.05-22.49a5.07,5.07,0,0,1,.83-3A39,39,0,0,0,31,20.67a4.79,4.79,0,0,0,.4-1.84C31.44,17.56,31.4,16.28,31.4,14.78Zm-1,23.7c.9.36,1.71.67,2.51,1a3.28,3.28,0,0,0,2.71,0A8.86,8.86,0,0,1,43,39.4a4.08,4.08,0,0,0,3.72-.14c.6-.32,1.25-.54,1.82-.79v-11a25.85,25.85,0,0,0-2.81-.3c-4.56,0-9.12,0-13.69,0a2.23,2.23,0,0,0-1.68.46c-.1,1.63-.22,3.14-.27,4.66-.05,1.69,0,3.39,0,5.09A4.33,4.33,0,0,0,30.39,38.48ZM48.55,53V40.87a6.28,6.28,0,0,0-.75.29,6.49,6.49,0,0,1-6,.15,5.68,5.68,0,0,0-4.72,0,6.47,6.47,0,0,1-5.71-.05,2.37,2.37,0,0,0-.81-.1,72.09,72.09,0,0,0-.12,11.75C31.7,53.24,45,53.34,48.55,53ZM55,26.3c-.62-1.05-1.23-2.1-2-3.34l-1.18,1.87c-.37.59-.73,1.19-1,1.7-.2,11.53-.09,25.32.23,26.6,1.3-.1,2.64.36,3.91-.22,0-.25,0-.43,0-.6Zm-4.22-4.61c-.51-.39-1.11-.21-1.67-.21-3.81,0-7.62,0-11.42,0-1.56,0-3.11.16-4.59.23L31.16,25H49c.62-1,1.19-2,1.75-2.92C50.82,22,50.76,21.83,50.75,21.69ZM33.57,19.25c3.36.25,16.82.16,18.24-.12,0-.44,0-.9,0-1.36a3.74,3.74,0,0,0-.17-.62,162.37,162.37,0,0,0-18.07,0Z"/><text class="b" transform="translate(25.07 10.81)">LACTEOS</text><text class="b" transform="translate(33.56 65.81)">MILK</text><path class="c" d="M12.05,60.47A39.64,39.64,0,0,1,14.61,9.53"/><path class="c" d="M70.36,9.5a39.64,39.64,0,0,1,2.52,51.06"/></svg>