<svg xmlns="http://www.w3.org/2000/svg" viewBox="0 0 85 70"><defs><style>.a,.c{fill:none;stroke-miterlimit:10;}.a{stroke:#000;stroke-width:0.5px;}.b{font-size:8px;font-family:ShreeDev0714, "Shree Devanagari 714";}.c{stroke:#04d0e1;}</style></defs><title>alergenos</title><path class="a" d="M55.66,45.4c3.14,2.28,2.51,6.84-.8,8.76a9.35,9.35,0,0,1-4.64,1.36c-5.22,0-10.44,0-15.67,0a7.71,7.71,0,0,1-5.83-2.4A14,14,0,0,1,27.35,51a5.79,5.79,0,0,1,1.8-5.74c-2.8-4.49-5.81-8.81-8.74-13-.7-2.74.78-4.73,2.24-6.51A31.52,31.52,0,0,1,32.9,17.42,19.77,19.77,0,0,1,38,15.21a27.34,27.34,0,0,1,4.64-.68,14.43,14.43,0,0,1,3.88.67A28.36,28.36,0,0,1,57.42,21a27.32,27.32,0,0,1,5.41,5.54A11.44,11.44,0,0,1,64.66,30a3.15,3.15,0,0,1-.53,2.75c-1.28,1.82-2.45,3.72-3.7,5.56S57.86,42,56.58,43.91C56.25,44.4,56,44.91,55.66,45.4ZM32.3,20.71c-2,.88-3.21,2.37-4.7,3.46,0,.25-.09.53,0,.72,2.48,4.6,5,9.19,7.6,14v1.38L34.06,41c-2.1-2.12-3-4.88-4.41-7.27s-2.73-4.87-4.1-7.33a8.34,8.34,0,0,0-2.87,4.43c.78,1.23,1.53,2.46,2.33,3.66,1.33,2,2.69,4,4,6,2,2.9,3.93,5.79,5.87,8.7a8,8,0,0,0,3.57,3A9.4,9.4,0,0,0,50.3,48.76c2.4-3.61,4.84-7.2,7.25-10.8,1.58-2.35,3.16-4.7,4.77-7.11a11,11,0,0,0-2.87-4.46c-.36.52-.74,1-1,1.51-1.88,3.29-3.69,6.62-5.62,9.88-.66,1.1-1,2.5-2.48,3.1l-1.41-1.14c2.59-5.39,6-10.16,8.66-15.44-1.69-1.15-2.88-2.81-5-3.54-2,5.41-4,10.68-6,16-1.17.6-1.17.6-2.28-.18a3.29,3.29,0,0,1,.1-.68c.57-1.59,1.17-3.16,1.73-4.74,1.13-3.21,2.14-6.46,3.52-9.58a13.39,13.39,0,0,0,.59-2.32,15.23,15.23,0,0,0-10.62-2,8.58,8.58,0,0,0-5.05,2.23c2.08,5.73,4.13,11.36,6.17,17-.9.82-1.68,1-2.44.28ZM29.44,48.9c.38,2.87,2.26,4.24,5.3,4.11l-4.13-5.69C30.16,47.94,29.81,48.41,29.44,48.9Zm20.1,4.24a6.64,6.64,0,0,0,3.88-.86,2.94,2.94,0,0,0,1.64-1.81,4,4,0,0,0,.17-1.74,1.24,1.24,0,0,0-.95-1.23C52.68,49.24,52,51.68,49.54,53.14Z"/><text class="b" transform="translate(20.84 10.81)">MOLUSCOS</text><text class="b" transform="translate(22.57 65.81)">SHELLFISH</text><path class="c" d="M12.05,60.47A39.64,39.64,0,0,1,14.61,9.53"/><path class="c" d="M70.36,9.5a39.64,39.64,0,0,1,2.52,51.06"/></svg>