<svg xmlns="http://www.w3.org/2000/svg" viewBox="0 0 85 70"><defs><style>.a,.c{fill:none;stroke-miterlimit:10;}.a{stroke:#000;stroke-width:0.5px;}.b{font-size:8px;font-family:ShreeDev0714, "Shree Devanagari 714";}.c{stroke:#c88149;}</style></defs><title>alergenos</title><path class="a" d="M33.68,55.73a29.49,29.49,0,0,1-8.24-1c-2-.58-2.62-1.93-2.92-3.6-.38-2.12-.52-4.28-.87-6.41a13,13,0,0,1,1-7.25,11.48,11.48,0,0,1,5.49-6c1.05-.51,2.11-1,3.16-1.5a11.06,11.06,0,0,0,5.6-5.25c.47-1,.87-2,1.32-3.06a12.31,12.31,0,0,1,3.59-4.44,12.48,12.48,0,0,1,8.34-2.94,38.11,38.11,0,0,1,6.84.43,24,24,0,0,1,4,1.27,1.88,1.88,0,0,1,.86,1.13A15.17,15.17,0,0,1,62.56,20c.25,2.21,1,4.32.93,6.59-.18,3.41-.88,6.63-3.19,9.26a14,14,0,0,1-3.07,2.63A35.69,35.69,0,0,1,53,40.57c-2.92,1.34-4.56,3.8-5.86,6.58-.64,1.39-1.28,2.79-2,4.13-.25.45-.81.74-1.22,1.11-2.43,2.18-5.13,3.65-8.54,3.35C34.8,55.69,34.24,55.73,33.68,55.73Zm25-38a26.81,26.81,0,0,0-10.28-1.21,2.13,2.13,0,0,0-.55.1,11.61,11.61,0,0,0-8,7.32,15.16,15.16,0,0,1-2,3.7,14.48,14.48,0,0,1-5.53,4.44c-.88.44-1.82.77-2.68,1.24a10,10,0,0,0-5.6,8.94,53.94,53.94,0,0,0,.34,6.47,20.35,20.35,0,0,0,.66,2.78l5.71-1.29a1.17,1.17,0,0,1,.37,0c2.23.28,4.11-.79,6-1.68a8,8,0,0,0,3.77-4.2c.54-1.22,1-2.49,1.66-3.66a13.56,13.56,0,0,1,7.28-6.25,12.54,12.54,0,0,0,4.9-3.09,11.41,11.41,0,0,0,2.78-5.53C58,23.17,58.33,20.48,58.73,17.76ZM29.36,53l0,.39c2.16,0,4.32.07,6.49.13a7.87,7.87,0,0,0,3.87-1,10.67,10.67,0,0,0,5.16-5.78c.34-.85.74-1.68,1.15-2.5a13.28,13.28,0,0,1,7.29-6.43,15.46,15.46,0,0,0,3.13-1.55,10.17,10.17,0,0,0,4.13-5.7,19.13,19.13,0,0,0,.37-5.89,9,9,0,0,0-.15-1.47,16.11,16.11,0,0,0-.53-1.54A23,23,0,0,1,58.82,29a12.46,12.46,0,0,1-6.67,6.91c-1.21.6-2.49,1.07-3.65,1.75a12.47,12.47,0,0,0-4.33,4.92c-.65,1.17-1,2.54-1.64,3.68a11.32,11.32,0,0,1-6.39,5.3,18.59,18.59,0,0,1-5.76,1.18A3.59,3.59,0,0,0,29.36,53Z"/><path class="a" d="M31.33,36.35l1.45,1c-.38.49-.58,1-1,1.18a6.21,6.21,0,0,0-3.08,3.26,1.48,1.48,0,0,1-.35.4c-.95.32-1.4-.18-1.69-1C28,37.74,28.84,37.08,31.33,36.35Z"/><path class="a" d="M40.39,34.8l.85.77c-.3,1.72-1.76,1.66-2.4,2.51s-1.38,1.67-2.13,2.56l-1-.49a3.06,3.06,0,0,1,.43-2.87A5.19,5.19,0,0,1,40.39,34.8Z"/><path class="a" d="M49.19,30.22a8.32,8.32,0,0,0,3.87-3.94l1.29.09a2.88,2.88,0,0,1-.06,2.37,4.9,4.9,0,0,1-4.72,3A1.07,1.07,0,0,1,49.19,30.22Z"/><path class="a" d="M44.2,30.06l-1.84-.23A4,4,0,0,1,44,26c1-.83,2.12-1.76,3.74-1,0,.4.09.8.15,1.27C46.27,27.06,44.79,28,44.2,30.06Z"/><path class="a" d="M51.74,17.78l1.39.51c-.25,1.78-1.93,2.29-2.61,3.51-1-.26-1.54-.66-1.54-1.68C49.69,19.28,50,17.94,51.74,17.78Z"/><path class="a" d="M33.87,45.41c.52,1.72-.42,2.6-1.5,3.53H30.51c-.1-.55-.19-1.06-.26-1.42l2.28-2.27Z"/><text class="b" transform="translate(16.9 10.81)">CACAHUETES</text><text class="b" transform="translate(24.86 65.81)">PEANUTS</text><path class="c" d="M12.05,60.47A39.64,39.64,0,0,1,14.61,9.53"/><path class="c" d="M70.36,9.5a39.64,39.64,0,0,1,2.52,51.06"/></svg>