<svg xmlns="http://www.w3.org/2000/svg" viewBox="0 0 85 70"><defs><style>.a,.c{fill:none;stroke-miterlimit:10;}.a{stroke:#000;stroke-width:0.5px;}.b{font-size:8px;font-family:ShreeDev0714, "Shree Devanagari 714";}.c{stroke:#a89b79;}</style></defs><title>alergenos</title><path class="a" d="M43.26,51.57a9.9,9.9,0,0,1,3.49-5.46c2-1.24,4.22-1,6.62-1-1-1.14-2.1-2-2.53-3.32s-.68-2.51-1.05-3.91a4.09,4.09,0,0,1,1-.76c1.8-.62,3.59-1.68,5.54-1.21,4.24,1,6.22,4,6.45,8.4A9.17,9.17,0,0,1,54,45.59l3.49,2.58c0,.32.09.45,0,.53-1.15,2-2.19,4.21-4.45,5.33a6.86,6.86,0,0,1-7.46-.66C44.8,52.83,44.09,52.22,43.26,51.57Zm3-.91c3,3.11,7,1.6,8.29-1.68A4.84,4.84,0,0,0,46.22,50.66ZM59.9,42.91c.21-2.44-1.42-3.42-3-4.44-1.42.09-2.94-.41-4.2.68.67,3.55,2.29,4.74,6.26,4.58Z"/><path class="a" d="M40.85,30.72c4.09.82,6.58,3.15,7.28,7.49-.06,2.19-1.2,4.18-2.6,6.19-1.49.25-2.62-.82-3.92-1.28a5.1,5.1,0,0,1-2.69-2.95C37.52,37.31,37.53,34.79,40.85,30.72Zm3.44,11a4.61,4.61,0,0,0,.76-5.56c-.68-1.36-1.65-2.43-3.44-2.34-.93,1.37-1.74,2.68-1,4.42A5.59,5.59,0,0,0,44.29,41.73Z"/><path class="a" d="M36.91,28.3c-.14-.13-.49-.31-.59-.58A26,26,0,0,1,35,23.65a6,6,0,0,1,1.13-4.52,7,7,0,0,1,5.4-3.33,6.06,6.06,0,0,0,1.59-.58c.05,0,.26.08.32.2.84,1.71,1.85,3.38,1.77,5.38a7.24,7.24,0,0,1-3.63,6.27A9.71,9.71,0,0,1,36.91,28.3ZM42,18.23c-3.31-.2-6.05,4-3.9,7.44a5.13,5.13,0,0,0,4.42-3.15A4.06,4.06,0,0,0,42,18.23Z"/><path class="a" d="M31.36,54.78c-1.17-.5-1.35-1.59-1.7-2.5a8.15,8.15,0,0,1-.13-5.34,7.76,7.76,0,0,1,8.13-5.1c.36.78.78,1.55,1.09,2.36a7.19,7.19,0,0,1-3.4,9.27A31,31,0,0,1,31.36,54.78Zm.92-2.63a5.91,5.91,0,0,0,4.3-3.39,4.13,4.13,0,0,0-.49-4.31c-2,0-3.13,1.21-4.11,2.6C30.77,48.75,31.34,50.38,32.28,52.15Z"/><path class="a" d="M35,33.38c-2.54,1.51-5.26,2.55-8.1,1.28-3.24-1.45-4.78-4.23-4.65-8a7,7,0,0,1,4-1.53,13.09,13.09,0,0,1,3.44.2c2.8.8,4.25,2.92,4.91,5.64C34.74,31.68,34.81,32.39,35,33.38ZM25,28.06c-.28,2,.76,3.19,2.28,4a4.27,4.27,0,0,0,5.08-.27,5.43,5.43,0,0,0-3-4.12A3.89,3.89,0,0,0,25,28.06Z"/><path class="a" d="M49.4,35c-1.82-1.69-2.51-5.92-1.44-8.39a8.05,8.05,0,0,1,7.82-4.38C59.69,27.75,56.88,34.5,49.4,35Zm1.14-2.75c3.59.15,6.06-4.78,3.73-7.5a5,5,0,0,0-4.24,3A3.94,3.94,0,0,0,50.54,32.27Z"/><text class="b" transform="translate(26.44 10.81)">SÉSAMO</text><text class="b" transform="translate(27.08 65.81)">SESAME</text><path class="c" d="M12.05,60.47A39.64,39.64,0,0,1,14.61,9.53"/><path class="c" d="M70.36,9.5a39.64,39.64,0,0,1,2.52,51.06"/></svg>