<svg xmlns="http://www.w3.org/2000/svg" viewBox="0 0 85 70"><defs><style>.a,.c{fill:none;stroke-miterlimit:10;}.a{stroke:#000;stroke-width:0.5px;}.b{font-size:8px;font-family:ShreeDev0714, "Shree Devanagari 714";}.c{stroke:#05a648;}</style></defs><title>alergenos</title><path class="a" d="M59.77,26.72c1,.61,2,1.14,2.92,1.7,1.66,1,3.31,2,5.09,3.16-.12.55-.3,1.15-.4,1.77-.2,1.2-.42,2.4-.52,3.6a10.63,10.63,0,0,1-5.11,8.42,11,11,0,0,1-5.34,1.28,6.18,6.18,0,0,0-3.85,1.72,11.29,11.29,0,0,1-5.48,3.16,7.57,7.57,0,0,1-1.34.18,8.46,8.46,0,0,0-6,2.6,9.74,9.74,0,0,1-12,1.16,27.38,27.38,0,0,0-5.17-3.13,1.27,1.27,0,0,1-.66-.93A23.66,23.66,0,0,0,21,45.79a9.85,9.85,0,0,1,5.3-11c.88-.46,1.72-1,2.57-1.48a4.47,4.47,0,0,0,2-2.31c1-3,3.29-4.62,6-5.86a10.45,10.45,0,0,0,3.23-2.77,9.68,9.68,0,0,1,8.62-6.77,11,11,0,0,1,4.78.73,7.18,7.18,0,0,0,2.34.48,10.6,10.6,0,0,1,2.36.51C58.71,20.6,59.25,23.69,59.77,26.72ZM24.55,50.62a3.8,3.8,0,0,0,.67.51,8.11,8.11,0,0,1,2.57,1.7c1.66,1.57,6.09,2.82,8.91.88,1-.69,1.94-1.44,2.89-2.19a8,8,0,0,1,5-2,8.09,8.09,0,0,0,6-2.63,7.43,7.43,0,0,1,3.64-2.23,33.12,33.12,0,0,1,3.59-.57,7.59,7.59,0,0,0,6.69-6.69c.14-.91.21-1.84.35-2.74.1-.62.28-1.23.4-1.75l-2.82-2c-.52-.36-1-.73-1.57-1.08a7.22,7.22,0,0,0-8-.09,18.54,18.54,0,0,0-2.45,1.93,8,8,0,0,1-5.19,2.17,7.74,7.74,0,0,0-6,2.48,10,10,0,0,1-6.5,2.85,11.09,11.09,0,0,0-2.37.41,6.7,6.7,0,0,0-4.62,4.53A59.08,59.08,0,0,0,24.55,50.62Zm-1.29-5.86a16.8,16.8,0,0,1,.93-2.65A10,10,0,0,1,33,36.84a7.62,7.62,0,0,0,1.84-.31,8.49,8.49,0,0,0,3.48-2.25,8.13,8.13,0,0,1,5.48-2.49,9.51,9.51,0,0,0,6.46-2.91,7,7,0,0,1,4.28-2.1,27.72,27.72,0,0,0,2.75-.54c.26-2.44-1.09-4.52-1.08-6.91l-6.31-1.49a1.77,1.77,0,0,0-.51-.05,8.34,8.34,0,0,0-7.13,5,7.13,7.13,0,0,1-2.78,3.42c-1.09.64-2.22,1.24-3.28,1.93a8.19,8.19,0,0,0-2,1.6,13.21,13.21,0,0,0-1.67,2.8,6.75,6.75,0,0,1-3.8,3.58,19.45,19.45,0,0,0-2.12,1.2c-2.33,1.35-3.15,3.59-3.51,6.06A5.48,5.48,0,0,0,23.26,44.76Z"/><path class="a" d="M39.47,40.51c.4-3.09,3.82-4.93,6.68-4.25s5,3.83,4.24,6.65c-1,3.47-3.58,5-6.62,4.31C40.25,46.43,38.61,43.38,39.47,40.51Zm8.81.52c-1.43-2.53-2.82-3.18-4.81-2.32a3.1,3.1,0,0,0-1.75,3.83c.64,2.08,2,2.72,4.71,2.2l1.25-1.11c.12-.35.27-.67.35-1C48.14,42.11,48.19,41.59,48.28,41Z"/><path class="a" d="M38.69,46.68C38.3,51,35.12,54,30,51.88c-2.77-2.31-3.12-4.89-2.15-7.4a5.57,5.57,0,0,1,5.67-3.13,10.57,10.57,0,0,1,2.59.88,3.57,3.57,0,0,1,1.79,2C38.22,45.06,38.44,46,38.69,46.68Zm-2.34,1.11c-.31-2.88-.91-3.67-2.94-4-1.73-.32-2.72.32-3.84,2.46.37,3.76,1.87,4.8,5.28,3.57Z"/><path class="a" d="M55.51,41.79c-3.12-.26-4.77-3.43-4.27-6.45A5.42,5.42,0,0,1,58,31.13a5.58,5.58,0,0,1,4.36,6.62C61.92,40.23,58.61,43.1,55.51,41.79Zm4.75-4.44c-.35-2.94-1.93-4.56-4-4.16-2.25.43-3.06,2.1-2.39,4.9a3.8,3.8,0,0,0,3,1.82A4.68,4.68,0,0,0,60.26,37.35Z"/><path class="a" d="M47.55,22.7c-.94.61-1.09,1.95-2.46,2.29l-1-1c.18-1.83,1.43-2.75,2.68-3.53a5,5,0,0,1,5-.27,1.42,1.42,0,0,1,.1,1.84C50.55,22.57,48.93,21.47,47.55,22.7Z"/><text class="b" transform="translate(32.59 10.81)">SOJA</text><text class="b" transform="translate(32.03 65.81)">SOYA</text><path class="c" d="M12.05,60.47A39.64,39.64,0,0,1,14.61,9.53"/><path class="c" d="M70.36,9.5a39.64,39.64,0,0,1,2.52,51.06"/></svg>